<svg width="28" height="27" viewBox="0 0 28 27" fill="none" xmlns="http://www.w3.org/2000/svg">
<g clip-path="url(#clip0)">
<path d="M26.376 9.07006H23.6458L19.8457 1.89718C19.6406 1.51015 19.1606 1.3625 18.7731 1.56741C18.3858 1.77231 18.2381 2.25222 18.4431 2.63925L21.8501 9.07006H6.91015L10.3172 2.63925C10.5222 2.25222 10.3745 1.77231 9.98718 1.56741C9.59999 1.36256 9.11964 1.51015 8.9146 1.89718L5.1144 9.07006H2.38884C1.55305 9.07006 0.873047 9.74959 0.873047 10.5848V12.3463C0.873047 13.1464 1.49708 13.8031 2.28431 13.857L4.94643 24.9173C5.03219 25.2737 5.35118 25.5248 5.71795 25.5248H23.0417C23.4083 25.5248 23.7272 25.2738 23.8131 24.9177L26.4815 13.8569C27.2683 13.8026 27.8918 13.1461 27.8918 12.3463V10.5848C27.8918 9.74959 27.2119 9.07006 26.376 9.07006V9.07006ZM2.4601 10.656H26.3048V12.2751H2.4601V10.656ZM23.8243 18.1044H20.35L20.8802 13.861H24.848L23.8243 18.1044ZM15.1771 23.9389V19.6904H18.5525L18.0216 23.9389H15.1771ZM10.7453 23.9389L10.214 19.6904H13.59V23.9389H10.7453ZM3.9176 13.861H7.88566L8.41631 18.1044H4.93897L3.9176 13.861ZM9.48498 13.861H13.59V18.1044H10.0156L9.48498 13.861ZM15.1771 18.1044V13.861H19.2808L18.7506 18.1044H15.1771ZM5.32066 19.6904H8.61459L9.14588 23.9389H6.34325L5.32066 19.6904ZM22.4167 23.9389H19.621L20.1518 19.6904H23.4416L22.4167 23.9389Z" fill="#212121"/>
</g>
<defs>
<clipPath id="clip0">
<rect width="27.0188" height="27" fill="white" transform="translate(0.873047)"/>
</clipPath>
</defs>
</svg>
