<svg width="28" height="26" viewBox="0 0 28 26" fill="none" xmlns="http://www.w3.org/2000/svg">
<g clip-path="url(#clip0)">
<path d="M27.8538 13C27.8538 5.81505 21.8117 0 14.3444 0C6.87787 0 0.834961 5.81425 0.834961 13C0.834961 20.1213 6.82654 26 14.3444 26C21.8313 26 27.8538 20.154 27.8538 13ZM14.3444 1.52344C20.9205 1.52344 26.2706 6.67178 26.2706 13C26.2706 15.3149 25.5551 17.54 24.2282 19.4246C18.9 13.9093 9.79842 13.8994 4.4605 19.4246C3.1336 17.54 2.41809 15.3149 2.41809 13C2.41809 6.67178 7.76818 1.52344 14.3444 1.52344ZM5.4479 20.6426C10.1853 15.5291 18.5046 15.5303 23.2406 20.6426C18.4873 25.76 10.2033 25.7616 5.4479 20.6426Z" fill="#212121"/>
<path d="M14.3441 13.7617C16.9629 13.7617 19.0935 11.7114 19.0935 9.19141V7.66797C19.0935 5.14795 16.9629 3.09766 14.3441 3.09766C11.7254 3.09766 9.59473 5.14795 9.59473 7.66797V9.19141C9.59473 11.7114 11.7254 13.7617 14.3441 13.7617ZM11.1779 7.66797C11.1779 5.98782 12.5981 4.62109 14.3441 4.62109C16.0901 4.62109 17.5104 5.98782 17.5104 7.66797V9.19141C17.5104 10.8716 16.0901 12.2383 14.3441 12.2383C12.5981 12.2383 11.1779 10.8716 11.1779 9.19141V7.66797Z" fill="#212121"/>
</g>
<defs>
<clipPath id="clip0">
<rect width="27.0188" height="26" fill="white" transform="translate(0.834961)"/>
</clipPath>
</defs>
</svg>
