<svg width="25" height="24" viewBox="0 0 25 24" fill="none" xmlns="http://www.w3.org/2000/svg">
<path d="M24.5401 22.4071L18.6788 16.5501C20.1357 14.7993 21.0135 12.5512 21.0135 10.1016C21.0135 4.53154 16.4789 0 10.9052 0C5.33145 0 0.796875 4.53154 0.796875 10.1016C0.796875 15.6712 5.33145 20.2024 10.9052 20.2024C13.3564 20.2024 15.6063 19.3254 17.3582 17.8695L23.2196 23.7267C23.4019 23.9089 23.6409 24 23.8798 24C24.1188 24 24.3578 23.9089 24.5402 23.7267C24.9049 23.3623 24.9049 22.7715 24.5401 22.4071ZM2.66439 10.1016C2.66439 5.56057 6.36119 1.86621 10.9052 1.86621C15.4491 1.86621 19.1458 5.56057 19.1458 10.1016C19.1458 14.6422 15.4491 18.3362 10.9052 18.3362C6.36119 18.3362 2.66439 14.6422 2.66439 10.1016Z" fill="#212121"/>
</svg>
